<?xml version="1.0" standalone="no"?>
<!DOCTYPE svg PUBLIC "-//W3C//DTD SVG 20010904//EN"
 "http://www.w3.org/TR/2001/REC-SVG-20010904/DTD/svg10.dtd">
<svg version="1.0" xmlns="http://www.w3.org/2000/svg"
 width="7730.000000pt" height="7730.000000pt" viewBox="0 0 7730.000000 7730.000000"
 preserveAspectRatio="xMidYMid meet">
<metadata>
Created by potrace 1.16, written by Peter Selinger 2001-2019
</metadata>
<g transform="translate(0.000000,7730.000000) scale(0.100000,-0.100000)"
fill="#000000" stroke="none">
<path d="M52868 59496 c-14 -6 -153 -160 -307 -343 -155 -183 -285 -334 -289
-336 -4 -3 -63 2 -132 10 -161 20 -611 22 -775 4 -66 -7 -168 -21 -226 -30
l-107 -17 -303 328 c-171 185 -314 331 -327 335 -27 6 15 24 -557 -228 -309
-136 -474 -214 -484 -228 -12 -18 -9 -80 24 -467 31 -373 35 -448 23 -458 -7
-7 -62 -52 -123 -101 -215 -173 -515 -495 -675 -724 l-45 -64 -195 7 c-107 4
-229 9 -270 11 -41 2 -156 7 -255 10 -166 6 -183 5 -202 -12 -27 -24 -403
-991 -403 -1038 0 -32 17 -48 328 -311 180 -152 335 -284 344 -293 16 -15 16
-26 3 -151 -8 -74 -17 -192 -20 -262 l-7 -126 -131 4 c-73 3 -557 14 -1077 24
-520 11 -1483 31 -2140 45 -6775 141 -13185 254 -18240 320 -4670 61 -7274 79
-10289 72 -2234 -5 -3152 -15 -3391 -37 -367 -34 -698 -131 -1035 -303 -259
-133 -487 -299 -700 -512 -490 -488 -780 -1125 -824 -1810 -5 -83 -6 -5454 -1
-13175 7 -11641 9 -13046 23 -13140 80 -547 223 -980 466 -1414 622 -1110
1733 -1839 3001 -1970 177 -19 1123 -44 4173 -111 605 -13 1101 -25 1103 -28
2 -2 -5 -30 -16 -63 -33 -96 -61 -250 -67 -373 -19 -398 163 -801 481 -1060
177 -145 313 -212 677 -336 546 -186 852 -301 1035 -390 120 -58 166 -91 189
-136 10 -19 38 -39 86 -62 l71 -35 -34 -10 c-18 -6 -80 -23 -138 -38 -58 -15
-106 -27 -107 -28 -1 -1 9 -40 22 -86 89 -311 156 -822 140 -1074 l-7 -109
108 7 c391 24 803 64 1214 116 240 31 777 112 866 130 27 6 134 26 237 45 267
50 569 110 805 160 l202 44 183 -35 c270 -51 658 -119 952 -165 143 -22 285
-45 315 -50 288 -46 1352 -159 1501 -159 18 0 19 9 19 170 0 349 48 589 187
942 l58 148 85 26 c964 292 1693 521 1790 563 188 81 332 180 481 330 204 207
345 480 393 760 21 122 21 330 0 450 -9 51 -14 94 -12 95 1 2 453 -5 1003 -14
550 -10 1189 -21 1420 -25 231 -4 584 -10 785 -14 l365 -6 -3 -40 c-2 -22 -83
-754 -180 -1627 l-177 -1586 375 -4 c437 -5 452 -8 657 -108 401 -196 720
-601 798 -1011 23 -121 23 -2286 0 -2406 -84 -445 -470 -869 -931 -1025 -69
-23 -69 -23 -741 -26 l-673 -3 0 -24 0 -25 -11290 0 c-11280 0 -11289 0
-11343 -20 -73 -27 -130 -79 -164 -148 l-28 -57 -3 -2397 -2 -2397 21 -57 c29
-77 96 -144 172 -173 l58 -21 12714 0 12714 0 58 21 c76 29 143 96 172 172 21
57 21 63 21 942 l0 885 7293 2 7292 3 96 27 c305 84 526 272 602 513 17 54 22
93 21 170 -1 100 -1 101 -258 995 -141 492 -264 913 -272 935 -25 64 -98 166
-162 227 -191 182 -463 275 -774 263 -68 -2 -215 -7 -328 -10 -113 -3 -257 -7
-320 -10 -63 -2 -207 -7 -320 -10 -113 -3 -257 -7 -320 -10 -63 -3 -207 -7
-320 -10 -113 -3 -257 -7 -320 -10 -63 -2 -209 -7 -325 -10 -115 -3 -260 -8
-322 -11 -101 -5 -112 -3 -117 13 -14 47 -1327 7875 -1322 7880 3 4 439 1 969
-6 1814 -22 3363 -40 4327 -51 531 -5 1168 -12 1415 -15 248 -3 983 -10 1635
-15 652 -5 1419 -12 1705 -15 286 -3 1047 -8 1690 -11 644 -4 1171 -7 1172 -8
3 -2 443 -2316 704 -3696 95 -503 176 -919 179 -923 10 -11 202 -42 400 -63
204 -23 854 -26 1105 -6 679 54 1386 163 2020 312 99 24 190 45 203 47 22 5
21 8 -32 107 -317 592 -604 1564 -831 2806 -85 464 -232 1396 -223 1406 3 2
533 9 1179 14 1108 10 1287 15 1469 41 449 65 887 243 1255 509 381 276 683
634 890 1055 128 261 200 475 249 745 37 203 44 316 61 915 202 7353 205
14159 10 19045 -120 2995 -304 5324 -561 7110 -69 480 -112 670 -211 920 -376
953 -1212 1642 -2213 1824 -242 44 -201 42 -2055 96 -374 11 -826 24 -1005 30
-391 12 -1799 49 -3400 90 -646 16 -1249 32 -1340 35 -91 2 -399 9 -685 15
-286 6 -553 13 -592 16 l-73 6 0 168 c0 194 -13 370 -41 554 -10 71 -19 132
-19 136 0 4 149 146 330 314 285 265 330 310 330 335 0 44 -429 1010 -456
1028 -20 13 -70 10 -446 -21 -234 -20 -435 -36 -449 -36 -18 0 -42 24 -104
102 -188 239 -513 542 -792 738 l-22 15 14 335 c23 564 23 567 0 589 -11 10
-231 101 -490 201 -588 228 -535 210 -567 196z m-867 -1891 c369 -43 746 -171
1067 -362 228 -135 505 -377 675 -588 249 -309 431 -685 521 -1075 11 -51 12
-70 3 -90 -17 -35 -53 -50 -87 -38 -33 11 -41 28 -74 164 -134 535 -460 1027
-901 1359 -847 636 -1981 670 -2858 85 -425 -284 -735 -669 -927 -1150 -173
-433 -216 -935 -120 -1402 100 -482 355 -944 711 -1282 570 -542 1372 -784
2139 -645 598 107 1151 443 1517 920 74 96 99 115 139 107 28 -5 57 -53 50
-81 -21 -84 -377 -461 -571 -605 -388 -287 -845 -465 -1319 -513 -169 -17
-496 -7 -656 20 -435 74 -831 243 -1178 503 -113 84 -325 288 -422 403 -495
593 -703 1378 -564 2135 133 728 556 1355 1184 1754 236 150 582 287 873 347
240 48 558 62 798 34z m-125 -1606 c420 -58 759 -379 846 -799 26 -123 21
-325 -10 -442 -81 -302 -277 -538 -556 -669 -147 -69 -226 -84 -426 -83 -161
0 -182 2 -265 27 -227 69 -398 187 -533 366 -261 346 -268 833 -17 1186 53 74
191 207 268 258 202 134 451 190 693 156z m-21396 -1859 c9254 -187 16850
-340 16880 -340 l55 0 -63 -58 c-46 -43 -62 -64 -62 -85 0 -14 92 -237 205
-493 222 -504 232 -525 249 -536 19 -13 110 -8 521 26 l399 34 15 -21 c84
-120 386 -439 546 -576 88 -76 284 -228 318 -247 16 -9 16 -35 0 -456 -12
-318 -14 -453 -6 -470 8 -19 100 -58 519 -220 280 -109 519 -198 531 -198 26
0 52 28 363 399 l245 292 70 -6 c39 -3 113 -10 165 -15 216 -21 603 -10 840
25 52 8 113 16 135 19 l40 6 304 -330 c273 -297 306 -330 334 -330 19 0 229
87 525 218 395 173 497 222 505 241 9 17 3 124 -22 430 -18 223 -35 422 -38
441 -5 35 -3 37 129 145 231 190 464 435 646 680 41 55 79 103 86 106 6 3 88
2 181 -2 94 -4 244 -10 335 -13 91 -3 212 -9 270 -12 93 -5 108 -4 128 13 15
12 73 149 176 413 l153 395 379 -4 c209 -2 432 -7 498 -10 l119 -6 -108 -60
c-124 -68 -144 -95 -108 -144 30 -39 63 -38 140 7 37 21 116 64 174 95 70 38
109 65 117 81 l11 25 133 -5 c73 -3 1393 -30 2933 -60 l2800 -55 100 -55 c124
-68 134 -71 169 -43 23 18 27 28 24 55 l-4 34 121 0 c349 -2 816 -20 900 -35
356 -63 655 -221 896 -472 242 -254 389 -558 434 -900 19 -143 21 -959 2 -930
-94 145 -91 142 -125 145 -22 2 -41 -3 -53 -14 -22 -20 -25 -71 -5 -99 7 -11
54 -90 103 -176 l90 -155 -38 -11030 c-45 -13085 -41 -12267 -63 -12404 -104
-643 -447 -1176 -976 -1522 -307 -201 -634 -313 -1015 -348 -77 -7 -447 -5
-1230 5 -616 8 -1236 15 -1378 15 l-258 0 7 -37 c4 -21 17 -82 29 -135 l21
-97 -70 -40 c-268 -153 -613 -266 -921 -301 -133 -15 -407 -12 -542 5 -183 24
-476 101 -519 136 -7 6 -51 116 -100 247 -48 130 -91 241 -95 246 -5 6 -29195
374 -29809 376 l-115 0 6 -102 c4 -57 7 -201 8 -320 l1 -217 43 -5 c23 -2
6749 -118 14947 -256 8198 -138 14937 -253 14975 -256 l71 -5 -10 -75 -9 -75
-246 6 c-274 7 -29541 505 -29681 505 l-88 0 -7 -97 c-41 -638 -152 -1178
-332 -1628 l-28 -70 -180 -90 c-99 -49 -286 -140 -415 -202 l-235 -112 -5
1222 c-5 1209 -5 1222 -25 1257 -12 19 -39 47 -60 62 l-40 27 -2873 1 c-2800
0 -2874 0 -2910 -19 -20 -10 -45 -28 -55 -39 -47 -52 -46 -27 -47 -1265 l0
-1168 -212 110 c-117 61 -309 161 -427 224 l-213 113 -24 59 c-80 197 -165
499 -208 745 -45 251 -58 400 -63 718 l-5 302 -192 0 c-105 1 -2092 34 -4416
74 -3186 54 -4231 75 -4247 84 -43 23 -42 99 0 126 19 13 547 6 4362 -59 2387
-41 4377 -75 4423 -75 l82 0 0 44 c0 56 25 299 46 439 8 60 13 112 9 115 -3 3
-1530 25 -3393 48 -2132 27 -3422 47 -3482 54 -425 49 -829 217 -1160 480
-116 92 -311 295 -397 410 -264 357 -410 754 -443 1205 -13 191 -14 24463 0
24628 62 743 558 1349 1266 1547 167 46 266 58 504 59 119 1 7787 -152 17040
-339z m33645 -29436 c1734 -29 2094 -38 2112 -49 32 -21 40 -71 15 -104 -19
-25 -22 -26 -148 -29 -71 -1 -1033 13 -2138 32 l-2010 35 -75 76 -76 75 115 0
c63 0 1056 -16 2205 -36z m-39374 -582 c81 -39 169 -128 207 -209 24 -53 27
-69 27 -173 0 -103 -3 -121 -27 -172 -143 -308 -615 -250 -703 87 -40 155 -3
317 95 416 67 67 132 90 245 86 77 -3 100 -8 156 -35z m-8720 -9939 c164 -56
280 -175 332 -338 l22 -70 0 -1600 0 -1600 -22 -70 c-52 -163 -168 -282 -332
-338 l-66 -22 -1050 -3 c-700 -2 -1077 1 -1130 8 -213 28 -391 191 -434 398
-8 37 -11 524 -11 1627 0 1103 3 1590 11 1627 6 29 26 85 44 123 65 137 226
255 376 274 35 5 543 8 1129 7 l1065 -1 66 -22z m1587 17 c174 -25 314 -156
351 -328 15 -74 16 -3303 0 -3388 -32 -174 -168 -305 -345 -334 -76 -13 -362
-13 -437 0 -178 29 -318 169 -347 347 -13 78 -13 3278 0 3356 28 174 175 322
342 347 76 11 361 11 436 0z m24259 -302 c31 -29 30 -72 -2 -103 -23 -24 -30
-25 -143 -25 -65 0 -274 -3 -464 -7 l-346 -6 -26 26 c-31 31 -33 66 -7 98 18
23 27 24 163 30 78 3 291 6 472 7 326 2 330 2 353 -20z m-2202 -33 c14 -13 25
-31 25 -39 0 -28 -19 -65 -39 -75 -13 -7 -484 -18 -1378 -30 -747 -11 -1490
-23 -1650 -26 l-293 -6 0 75 c0 42 1 77 3 77 5 3 2811 46 3055 48 l253 1 24
-25z"/>
<path d="M51528 55840 c-252 -62 -470 -246 -580 -487 -72 -160 -92 -391 -49
-558 79 -303 317 -545 617 -627 64 -17 107 -21 224 -21 129 0 155 3 233 26
311 95 540 340 608 652 20 88 17 294 -5 380 -40 154 -131 310 -247 421 -116
110 -240 178 -391 214 -111 27 -301 26 -410 0z"/>
<path d="M46759 53609 c-17 -17 -20 -29 -15 -61 12 -71 114 -362 133 -376 27
-20 73 -11 95 19 l19 25 -62 190 c-34 104 -69 197 -77 207 -20 23 -67 22 -93
-4z"/>
<path d="M61566 53398 c-13 -13 -179 -205 -367 -428 l-342 -405 -46 0 c-25 0
-104 7 -176 15 -90 10 -233 15 -465 15 -347 -1 -493 -11 -750 -54 l-115 -19
-31 31 c-17 18 -176 190 -354 382 -396 430 -380 415 -426 415 -41 0 -1232
-519 -1271 -553 -31 -28 -31 -39 17 -611 22 -265 41 -497 42 -517 3 -34 -1
-38 -122 -136 -328 -263 -663 -618 -888 -940 l-57 -82 -80 5 c-109 6 -859 34
-969 35 -81 1 -90 -1 -111 -22 -22 -24 -506 -1258 -505 -1291 0 -9 5 -27 11
-40 6 -13 202 -184 435 -382 304 -256 423 -363 420 -375 -3 -9 -13 -88 -22
-176 -22 -200 -25 -707 -5 -900 12 -125 44 -357 57 -421 6 -29 -4 -39 -262
-280 -611 -567 -564 -520 -564 -565 0 -12 85 -216 189 -453 104 -237 226 -514
271 -616 44 -102 89 -194 100 -204 25 -25 20 -25 608 24 266 22 500 40 520 40
34 -1 41 -7 87 -67 147 -196 427 -488 650 -679 108 -92 362 -290 402 -313 10
-5 8 -127 -9 -557 -12 -303 -18 -562 -14 -577 3 -15 17 -34 30 -42 41 -27
1257 -495 1286 -495 15 0 37 8 48 18 12 9 179 204 372 432 224 264 358 414
368 413 9 -1 91 -10 182 -20 124 -13 243 -17 480 -17 327 0 481 11 749 55 101
16 127 17 136 7 211 -233 749 -807 761 -812 8 -3 26 -6 39 -6 31 0 1245 536
1270 561 26 26 26 15 -25 639 l-43 515 39 32 c214 174 315 264 469 418 195
194 325 345 474 548 l94 128 86 -5 c100 -7 251 -13 511 -22 102 -3 205 -7 230
-9 91 -7 295 -6 313 0 10 4 24 19 31 34 39 75 489 1251 490 1278 0 17 -7 39
-14 49 -8 9 -201 174 -428 367 -228 192 -416 355 -418 361 -3 7 3 72 12 146
23 189 28 752 9 955 -13 139 -51 402 -61 430 -3 6 167 171 378 365 466 431
445 411 453 443 5 20 -25 97 -135 349 -79 178 -201 455 -271 616 -71 161 -134
301 -141 311 -27 43 -33 43 -615 -6 l-557 -47 -30 39 c-129 163 -256 306 -411
461 -190 191 -348 327 -557 481 l-126 94 4 57 c2 31 11 251 19 487 8 237 17
458 19 493 6 76 -8 118 -43 136 -81 42 -1248 486 -1276 486 -21 0 -43 -9 -59
-22z m-1016 -2373 c887 -117 1668 -567 2194 -1265 270 -358 468 -777 572
-1213 26 -108 27 -120 13 -145 -22 -40 -62 -51 -96 -25 -24 17 -33 40 -64 164
-310 1233 -1298 2131 -2564 2331 -192 31 -695 33 -875 5 -373 -59 -670 -155
-993 -319 -1282 -654 -1944 -2117 -1592 -3518 85 -340 230 -665 424 -957 125
-187 205 -286 356 -442 770 -793 1903 -1120 2972 -856 679 167 1286 563 1716
1118 92 118 101 127 132 127 24 0 39 -7 54 -26 38 -48 31 -62 -126 -256 -724
-899 -1907 -1346 -3049 -1153 -1445 244 -2534 1395 -2700 2855 -22 200 -15
617 14 805 57 366 160 692 317 1005 420 836 1184 1452 2090 1685 195 50 323
71 600 99 91 9 487 -3 605 -19z m-194 -2006 c396 -55 753 -312 935 -675 203
-405 165 -904 -99 -1274 -312 -437 -875 -623 -1388 -459 -531 170 -885 673
-861 1224 26 594 445 1074 1029 1180 91 16 281 19 384 4z"/>
<path d="M60042 48879 c-465 -60 -850 -422 -936 -879 -22 -116 -21 -321 3
-435 44 -213 134 -377 296 -541 197 -199 409 -300 680 -323 327 -28 640 85
870 314 372 371 429 945 137 1385 -226 342 -643 532 -1050 479z"/>
<path d="M56629 53282 c-118 -69 -289 -198 -298 -223 -20 -57 44 -109 94 -79
66 40 302 205 313 218 29 37 -1 112 -45 112 -10 0 -39 -13 -64 -28z"/>
<path d="M63730 53290 c-20 -20 -25 -45 -14 -75 4 -9 48 -44 98 -78 50 -33
124 -85 165 -114 41 -29 82 -53 91 -53 32 0 70 39 70 72 0 37 -15 51 -194 173
-148 101 -179 112 -216 75z"/>
<path d="M47030 52963 c-24 -8 -40 -34 -40 -64 0 -15 24 -80 54 -143 l55 -116
75 0 c42 0 76 2 76 5 0 2 -32 68 -70 147 -82 166 -102 188 -150 171z"/>
<path d="M56090 52883 c-34 -13 -171 -138 -177 -162 -10 -39 16 -75 57 -79 30
-2 46 6 115 64 44 37 83 72 87 78 30 45 -30 118 -82 99z"/>
<path d="M64312 52874 c-18 -12 -22 -24 -20 -52 3 -33 17 -48 148 -164 80 -71
155 -131 168 -134 53 -14 97 39 76 91 -18 45 -292 275 -327 275 -13 0 -33 -7
-45 -16z"/>
<path d="M64835 52385 c-47 -46 -40 -58 139 -248 128 -137 153 -150 196 -107
41 41 28 68 -88 196 -176 193 -199 208 -247 159z"/>
<path d="M65300 51850 c-33 -33 -25 -67 38 -149 32 -42 86 -115 121 -163 60
-85 64 -88 101 -88 43 0 70 26 70 66 0 21 -133 213 -215 311 -41 49 -81 57
-115 23z"/>
<path d="M54993 51042 c-54 -43 -126 -99 -160 -125 -52 -40 -63 -53 -63 -78 0
-35 31 -69 64 -69 23 0 226 147 309 223 42 40 48 76 17 107 -35 35 -63 25
-167 -58z"/>
<path d="M54525 50700 c-45 -18 -254 -147 -248 -154 4 -4 1 -4 -8 -1 -8 3 -33
-8 -57 -25 -52 -37 -57 -77 -16 -109 34 -27 43 -26 87 3 19 13 37 23 39 20 2
-2 62 31 133 74 145 87 170 114 145 158 -18 31 -47 44 -75 34z"/>
<path d="M53778 50316 c-78 -33 -121 -58 -129 -73 -11 -21 -13 -21 -25 -5 -7
9 -14 12 -14 6 0 -7 -8 -11 -17 -10 -12 0 -17 -5 -15 -16 3 -20 -14 -33 -24
-17 -4 8 -3 9 4 5 7 -4 12 -2 12 3 0 6 -7 11 -15 11 -19 0 -40 -49 -26 -63 11
-11 34 0 26 13 -6 10 21 7 32 -4 4 -4 1 -6 -7 -4 -16 3 -16 -4 -4 -37 7 -17 6
-18 -8 -5 -9 8 -14 18 -11 22 2 4 -3 5 -11 2 -13 -5 -12 -9 4 -26 16 -18 22
-19 35 -8 12 10 13 16 3 27 -6 8 -7 13 -2 12 5 -1 17 1 27 6 14 6 15 10 6 21
-8 10 -8 14 0 14 6 0 11 -5 11 -11 0 -5 6 -7 13 -4 6 4 1 -3 -12 -15 -14 -12
-26 -30 -28 -41 -3 -17 0 -18 18 -9 11 6 30 13 41 15 12 3 26 10 32 16 8 9 8
10 -1 5 -6 -3 -14 -2 -18 4 -4 6 -11 7 -17 4 -7 -4 -8 -2 -4 5 6 9 11 9 21 1
9 -8 14 -6 19 5 3 8 13 14 23 14 17 -1 17 -2 1 -6 -10 -2 -18 -8 -18 -12 0
-15 12 -20 29 -11 9 4 53 23 98 41 45 18 80 36 77 41 -3 4 1 5 9 3 7 -3 25 4
40 15 51 41 25 123 -38 119 -11 -1 -73 -24 -137 -53z"/>
<path d="M53743 47242 c-25 -16 -29 -55 -17 -162 27 -234 34 -269 62 -290 28
-23 55 -19 86 11 19 18 19 21 -4 216 -19 155 -28 201 -42 215 -18 18 -63 24
-85 10z"/>
<path d="M54260 45225 c-20 -24 -15 -63 18 -134 137 -298 132 -291 190 -291
35 0 62 27 62 63 0 15 -29 84 -64 154 -35 71 -71 146 -80 168 -9 21 -22 43
-29 47 -21 13 -84 9 -97 -7z"/>
<path d="M54980 44047 c-34 -17 -53 -58 -41 -89 5 -12 60 -88 123 -168 105
-135 116 -145 149 -148 47 -4 69 18 69 68 0 32 -10 51 -63 117 -35 43 -85 107
-111 143 -41 56 -76 89 -96 89 -3 1 -16 -5 -30 -12z"/>
<path d="M64782 43286 c-89 -91 -97 -112 -57 -151 40 -41 61 -33 152 58 90 90
101 119 63 157 -39 39 -69 27 -158 -64z"/>
<path d="M55895 43005 c-38 -38 -32 -63 31 -122 107 -101 254 -213 279 -213
37 0 67 35 63 72 -3 27 -26 51 -156 160 -85 71 -161 128 -173 128 -11 0 -31
-11 -44 -25z"/>
<path d="M64404 42942 c-43 -37 -104 -87 -134 -111 -30 -24 -63 -53 -72 -64
-39 -43 -8 -110 51 -110 30 0 107 57 259 191 62 55 72 68 72 96 0 40 -26 66
-67 66 -23 0 -49 -16 -109 -68z"/>
<path d="M63905 42556 c-16 -13 -85 -60 -153 -105 -67 -46 -127 -92 -133 -102
-20 -38 14 -89 57 -89 50 0 348 196 358 235 19 75 -63 113 -129 61z"/>
<path d="M63290 42174 c-36 -20 -84 -46 -108 -58 -24 -12 -39 -26 -35 -30 4
-5 3 -6 -4 -2 -13 7 -85 -25 -115 -52 -21 -18 -24 -75 -5 -90 27 -22 60 -24
98 -7 21 10 36 22 33 26 -3 5 3 6 12 2 12 -4 15 -3 10 5 -4 7 -2 10 6 7 7 -3
48 15 92 40 43 24 87 47 97 50 11 4 19 11 19 16 0 6 4 8 9 4 12 -7 51 43 51
66 0 28 -36 59 -67 59 -16 0 -57 -17 -93 -36z"/>
<path d="M25285 35059 c-33 -5 -172 -29 -310 -53 -376 -68 -457 -77 -735 -86
-237 -7 -261 -9 -337 -34 -157 -51 -279 -155 -494 -421 -160 -199 -232 -277
-329 -358 -128 -107 -168 -146 -212 -210 -179 -261 -208 -735 -78 -1247 115
-452 382 -976 613 -1198 l44 -44 -5 118 c-4 107 -7 121 -33 159 -39 58 -65
129 -91 247 -18 84 -22 136 -22 283 0 210 15 283 69 341 27 29 39 34 77 34 51
0 125 -34 184 -84 l40 -34 28 86 c39 119 70 176 127 237 96 101 216 140 429
139 270 -2 573 -68 1116 -244 267 -87 372 -110 499 -110 96 0 234 22 305 49
l49 19 7 -46 c14 -96 -9 -417 -42 -577 l-6 -30 27 25 c93 86 234 292 334 490
161 316 335 856 347 1075 16 282 -97 454 -350 534 -121 39 -205 88 -282 165
-61 61 -80 88 -129 191 -134 282 -156 323 -202 380 -94 116 -198 181 -327 206
-59 11 -228 10 -311 -2z"/>
<path d="M60010 34935 c-230 -32 -448 -118 -619 -245 -102 -76 -244 -229 -310
-334 -161 -258 -239 -604 -211 -934 16 -198 10 -198 110 -5 85 164 276 493
286 493 3 0 34 -20 69 -45 150 -107 522 -233 790 -267 50 -6 93 -14 97 -17 4
-4 44 -182 89 -396 45 -215 85 -393 88 -397 3 -4 33 14 66 39 114 87 245 130
330 109 41 -10 110 -81 136 -139 31 -70 32 -164 2 -230 -30 -66 -124 -155
-208 -199 -107 -56 -175 -72 -290 -71 -165 1 -179 143 114 -1173 138 -619 251
-1134 251 -1145 0 -13 20 -29 73 -55 276 -139 464 -351 556 -629 41 -126 55
-232 48 -388 -8 -194 -28 -262 -157 -527 -249 -514 -369 -917 -437 -1460 -14
-114 -18 -219 -18 -485 0 -187 4 -366 8 -397 l8 -57 52 -10 c241 -49 564 -70
830 -53 1427 89 2618 927 3041 2142 178 510 213 1084 100 1650 -227 1143
-1027 2202 -2068 2740 -243 126 -544 240 -751 285 -115 25 -192 64 -254 130
-113 119 -143 254 -101 455 93 451 -39 878 -369 1193 -335 319 -875 487 -1351
422z m1382 -894 c20 -40 42 -104 49 -141 16 -90 7 -304 -21 -490 -31 -203 -31
-379 -1 -485 91 -324 322 -549 1261 -1225 766 -551 1126 -872 1410 -1254 460
-621 602 -1309 393 -1909 -51 -148 -156 -347 -183 -347 -25 0 -19 32 16 86
162 253 245 624 215 964 -25 275 -87 492 -216 755 -148 301 -313 524 -604 816
-269 269 -531 480 -1116 899 -765 548 -1055 814 -1170 1074 -79 178 -88 335
-41 681 43 312 32 461 -44 586 -21 35 -25 50 -17 58 19 19 31 8 69 -68z m894
-2743 c483 -490 779 -886 999 -1333 217 -442 317 -851 317 -1295 0 -247 -24
-427 -87 -646 -29 -98 -34 -107 -57 -99 -13 5 -12 18 13 96 34 108 65 260 80
393 17 150 6 522 -20 671 -114 648 -400 1201 -955 1845 -50 58 -195 211 -323
341 -180 181 -230 238 -221 247 7 7 15 12 18 12 4 0 110 -105 236 -232z"/>
<path d="M59375 31620 c-16 -4 -74 -8 -127 -9 l-97 -1 -84 -127 c-107 -164
-171 -277 -257 -456 -90 -187 -90 -186 -43 -216 286 -186 434 -260 636 -316
93 -26 171 -45 174 -42 4 5 -137 1066 -153 1150 -3 15 -9 26 -12 26 -4 -1 -20
-5 -37 -9z"/>
<path d="M18860 20394 c-242 -20 -359 -40 -388 -67 -49 -45 -146 -185 -183
-262 -58 -120 -81 -219 -83 -355 -1 -124 19 -236 57 -320 55 -121 161 -247
227 -269 141 -48 742 -25 1505 59 378 42 886 109 910 120 17 8 16 9 -6 4 -14
-3 -55 0 -90 6 -188 32 -324 174 -366 379 -28 136 10 324 91 447 47 70 124
143 193 181 36 20 52 34 43 37 -19 6 -460 33 -770 46 -307 14 -931 10 -1140
-6z"/>
<path d="M28182 20349 c-101 -4 -186 -10 -188 -12 -3 -3 19 -18 48 -35 119
-67 227 -222 264 -377 22 -96 15 -248 -16 -330 -69 -184 -224 -299 -403 -300
-37 0 -59 -3 -50 -7 21 -8 481 -83 785 -128 799 -116 1422 -166 1600 -126 72
16 80 21 124 69 231 258 268 596 101 922 -38 72 -132 202 -169 232 -18 15
-278 58 -438 73 -327 29 -1178 39 -1658 19z"/>
<path d="M61121 11798 c-15 -74 -59 -187 -103 -265 -55 -98 -154 -191 -296
-281 -144 -91 -578 -386 -877 -596 l-200 -141 -125 -5 c-149 -7 -182 -20 -211
-83 -24 -53 -23 -81 1 -135 15 -34 29 -47 65 -63 43 -19 63 -20 368 -17 l322
3 61 28 c70 33 96 58 224 217 292 366 531 577 628 555 112 -24 182 -287 182
-682 l0 -123 65 0 c36 0 65 4 65 8 0 5 39 247 86 538 95 589 97 614 50 759
-40 126 -118 231 -228 306 -31 21 -58 39 -60 39 -2 0 -10 -28 -17 -62z"/>
<path d="M66526 11155 c78 -163 86 -186 87 -241 1 -78 -28 -139 -94 -198 -96
-87 -236 -117 -451 -98 -207 18 -338 61 -403 133 -39 44 -37 34 -69 239 -14
85 -31 180 -37 210 l-12 55 -13 -30 c-20 -46 -17 -106 25 -446 38 -303 41
-320 81 -422 142 -365 384 -683 608 -800 37 -19 91 -42 121 -51 72 -21 193
-21 237 0 136 65 236 375 251 779 7 192 1 229 -67 412 -91 243 -224 496 -319
603 -25 28 -15 2 55 -145z"/>
</g>
</svg>
