<?xml version="1.0" encoding="UTF-8" standalone="no"?>
<!-- Created with Inkscape (http://www.inkscape.org/) -->

<svg
   version="1.1"
   id="svg2"
   xml:space="preserve"
   width="764.26666"
   height="824.97333"
   viewBox="0 0 764.26666 824.97333"
   sodipodi:docname="business-buildings-publicdomainvectors.org.eps"
   xmlns:inkscape="http://www.inkscape.org/namespaces/inkscape"
   xmlns:sodipodi="http://sodipodi.sourceforge.net/DTD/sodipodi-0.dtd"
   xmlns="http://www.w3.org/2000/svg"
   xmlns:svg="http://www.w3.org/2000/svg"><defs
     id="defs6" /><sodipodi:namedview
     id="namedview4"
     pagecolor="#ffffff"
     bordercolor="#666666"
     borderopacity="1.0"
     inkscape:pageshadow="2"
     inkscape:pageopacity="0.0"
     inkscape:pagecheckerboard="0" /><g
     id="g8"
     inkscape:groupmode="layer"
     inkscape:label="ink_ext_XXXXXX"
     transform="matrix(1.3333333,0,0,-1.3333333,0,824.97333)"><g
       id="g10"
       transform="scale(0.1)"><path
         d="m 1946.2,87.5508 c 0,6.5508 -0.95,12.1992 -2.89,16.8402 -1.88,4.711 -4.55,8.308 -7.96,10.871 -3.4,2.488 -7.13,3.758 -11.28,3.758 -6.54,0 -12.06,-2.75 -16.57,-8.09 -4.51,-5.442 -6.76,-13.3284 -6.76,-23.8206 0,-9.8672 2.25,-17.5391 6.7,-22.9688 4.48,-5.4883 10.05,-8.2695 16.63,-8.2695 3.96,0 7.62,1.1992 11,3.6289 3.33,2.3789 6.04,5.9609 8.07,10.7109 2.06,4.8204 3.06,10.5782 3.06,17.3399 z m -46.56,36.1012 v -2.98 c 4.46,5.738 9.09,10 13.9,12.656 4.82,2.703 10.3,4.074 16.4,4.074 7.29,0 14.02,-1.992 20.17,-5.933 6.14,-3.918 10.99,-9.637 14.58,-17.231 3.56,-7.59 5.33,-16.5271 5.33,-26.8864 0,-7.6094 -1,-14.6797 -3.07,-20.9922 -2.05,-6.4102 -4.87,-11.7891 -8.48,-16.1172 -3.6,-4.3203 -7.86,-7.6719 -12.74,-9.9727 -4.92,-2.3593 -10.2,-3.5078 -15.79,-3.5078 -6.82,0 -12.53,1.3985 -17.14,4.25 -4.64,2.8477 -9,7 -13.16,12.5196 V 16.3516 C 1899.64,5.42188 1895.83,0 1888.24,0 c -4.47,0 -7.44,1.37891 -8.86,4.19141 -1.46,2.82031 -2.17,6.91799 -2.17,12.30859 v 107 c 0,4.711 0.95,8.262 2.95,10.57 1.98,2.321 4.67,3.52 8.08,3.52 3.37,0 6.12,-1.199 8.22,-3.621 2.11,-2.418 3.18,-5.86 3.18,-10.317"
         style="fill:#231f20;fill-opacity:1;fill-rule:nonzero;stroke:none"
         id="path12" /><path
         d="m 2050.83,50.7695 v 3.1407 c -2.88,-3.75 -5.85,-6.8789 -9,-9.3985 -3.13,-2.6015 -6.55,-4.4726 -10.25,-5.7031 -3.73,-1.2188 -7.97,-1.8477 -12.71,-1.8477 -5.74,0 -10.88,1.25 -15.44,3.6993 -4.57,2.4804 -8.08,5.9101 -10.56,10.2617 -2.98,5.2773 -4.45,12.8476 -4.45,22.6679 V 122.73 c 0,4.93 1.08,8.661 3.23,11.09 2.14,2.45 4.98,3.7 8.51,3.7 3.6,0 6.5,-1.25 8.71,-3.75 2.19,-2.481 3.3,-6.18 3.3,-11.04 V 83.0313 c 0,-5.7305 0.46,-10.5508 1.35,-14.4297 0.97,-3.9297 2.62,-6.9922 5.07,-9.2227 2.36,-2.1875 5.63,-3.2773 9.74,-3.2773 4.04,0 7.82,1.25 11.31,3.7187 3.58,2.461 6.17,5.6992 7.77,9.6797 1.35,3.5391 2,11.1992 2,23.082 v 30.148 c 0,4.86 1.1,8.559 3.31,11.04 2.19,2.5 5.05,3.75 8.59,3.75 3.55,0 6.39,-1.25 8.52,-3.7 2.15,-2.429 3.2,-6.16 3.2,-11.09 V 50.9219 c 0,-4.7227 -0.99,-8.2735 -3.08,-10.6094 -2.03,-2.3828 -4.67,-3.5312 -7.93,-3.5312 -3.24,0 -5.92,1.25 -8.04,3.6484 -2.11,2.4805 -3.15,5.8789 -3.15,10.3398"
         style="fill:#231f20;fill-opacity:1;fill-rule:nonzero;stroke:none"
         id="path14" /><path
         d="m 2119.71,86.5625 c 0,-9.8633 2.15,-17.4141 6.45,-22.7305 4.33,-5.2812 10,-7.9609 17.03,-7.9609 5.98,0 11.11,2.7305 15.46,8.1406 4.33,5.418 6.48,13.1485 6.48,23.2578 0,6.6094 -0.9,12.2227 -2.69,16.9215 -1.82,4.739 -4.39,8.391 -7.65,10.95 -3.36,2.558 -7.18,3.879 -11.6,3.879 -4.56,0 -8.54,-1.321 -12.09,-3.879 -3.56,-2.559 -6.32,-6.301 -8.37,-11.18 -2.02,-4.8321 -3.02,-10.6212 -3.02,-17.3985 z m -1.14,73.6795 v -37.883 c 4.41,4.891 9,8.563 13.64,11.18 4.64,2.563 10.4,3.863 17.24,3.863 7.88,0 14.78,-1.992 20.75,-5.851 5.92,-3.961 10.57,-9.59 13.82,-16.992 3.3,-7.418 4.93,-16.1996 4.93,-26.3793 0,-7.5274 -0.91,-14.3984 -2.71,-20.6914 -1.86,-6.25 -4.49,-11.6602 -7.97,-16.2969 -3.5,-4.582 -7.73,-8.1016 -12.67,-10.6914 -4.98,-2.4687 -10.44,-3.7383 -16.41,-3.7383 -3.64,0 -7.09,0.4571 -10.33,1.3594 -3.23,0.8984 -5.97,2.0781 -8.2,3.6094 -2.28,1.4101 -4.2,2.9883 -5.8,4.5312 -1.6,1.5977 -3.68,3.9297 -6.29,7.0899 v -2.4297 c 0,-4.6836 -1.09,-8.2031 -3.25,-10.6094 -2.13,-2.3828 -4.88,-3.5508 -8.15,-3.5508 -3.39,0 -6.04,1.168 -8.06,3.5508 -2,2.457 -2.99,5.9492 -2.99,10.6094 V 159.16 c 0,4.988 0.97,8.789 2.92,11.36 1.94,2.589 4.62,3.859 8.13,3.859 3.62,0 6.46,-1.227 8.41,-3.699 1.99,-2.43 2.99,-5.899 2.99,-10.438"
         style="fill:#231f20;fill-opacity:1;fill-rule:nonzero;stroke:none"
         id="path16" /><path
         d="M 2205.7,51.8398 V 159.32 c 0,4.981 1.06,8.711 3.17,11.262 2.13,2.527 4.98,3.797 8.58,3.797 3.59,0 6.48,-1.25 8.7,-3.77 2.17,-2.5 3.29,-6.289 3.29,-11.289 V 51.8398 c 0,-5.0195 -1.13,-8.8085 -3.35,-11.3398 -2.22,-2.4687 -5.12,-3.7383 -8.64,-3.7383 -3.49,0 -6.29,1.2969 -8.48,3.8985 -2.18,2.6211 -3.27,6.3203 -3.27,11.1796"
         style="fill:#231f20;fill-opacity:1;fill-rule:nonzero;stroke:none"
         id="path18" /><path
         d="M 2277.72,123.43 V 51.8398 c 0,-5 -1.16,-8.75 -3.37,-11.2812 -2.28,-2.5 -5.17,-3.7969 -8.62,-3.7969 -3.49,0 -6.32,1.2969 -8.49,3.8789 -2.16,2.6407 -3.27,6.3399 -3.27,11.1992 V 122.73 c 0,4.86 1.11,8.559 3.27,11.04 2.17,2.5 5,3.75 8.49,3.75 3.45,0 6.34,-1.25 8.62,-3.75 2.21,-2.481 3.37,-5.918 3.37,-10.34 z m -11.76,25.633 c -3.28,0 -6.11,1.046 -8.49,3.218 -2.3,2.098 -3.5,5.141 -3.5,9.008 0,3.492 1.2,6.359 3.62,8.672 2.38,2.281 5.18,3.348 8.37,3.348 3.08,0 5.82,-1.008 8.2,-3.047 2.35,-2.051 3.56,-5.09 3.56,-8.973 0,-3.84 -1.18,-6.809 -3.48,-8.937 -2.33,-2.161 -5.07,-3.289 -8.28,-3.289"
         style="fill:#231f20;fill-opacity:1;fill-rule:nonzero;stroke:none"
         id="path20" /><path
         d="m 2387.31,67.4414 c 0,-3.082 -0.86,-6.3906 -2.62,-9.8828 -1.81,-3.5195 -4.49,-6.8477 -8.13,-10.0195 -3.61,-3.1797 -8.18,-5.7383 -13.68,-7.6602 -5.5,-1.9687 -11.73,-2.918 -18.6,-2.918 -14.69,0 -26.14,4.461 -34.38,13.3789 -8.23,8.9415 -12.35,20.8711 -12.35,35.8907 0,10.1601 1.88,19.1795 5.63,26.9605 3.77,7.778 9.26,13.848 16.37,18.098 7.11,4.293 15.66,6.41 25.55,6.41 6.17,0 11.82,-0.949 16.95,-2.797 5.14,-1.89 9.48,-4.32 13.03,-7.261 3.57,-2.969 6.29,-6.141 8.2,-9.5 1.92,-3.352 2.81,-6.481 2.81,-9.391 0,-2.93 -1.07,-5.43 -3.16,-7.52 -2.13,-2.0581 -4.67,-3.1011 -7.7,-3.1011 -1.99,0 -3.62,0.582 -4.94,1.6328 -1.27,1.0273 -2.76,2.6993 -4.37,5.0973 -2.91,4.582 -5.94,8.063 -9.1,10.403 -3.17,2.289 -7.19,3.468 -12.02,3.468 -7.05,0 -12.71,-2.902 -17,-8.609 -4.28,-5.769 -6.41,-13.5702 -6.41,-23.4999 0,-4.6523 0.55,-8.9727 1.65,-12.8594 1.1,-3.9219 2.7,-7.2226 4.76,-9.9922 2.1,-2.7695 4.6,-4.8476 7.59,-6.25 2.95,-1.4492 6.2,-2.1601 9.71,-2.1601 4.79,0 8.85,1.1328 12.23,3.4492 3.41,2.3203 6.42,5.832 9,10.5117 1.48,2.8399 3.04,5 4.72,6.6016 1.69,1.5664 3.75,2.3086 6.18,2.3086 2.9,0 5.31,-1.1094 7.23,-3.4102 1.88,-2.3398 2.85,-4.7695 2.85,-7.3789"
         style="fill:#231f20;fill-opacity:1;fill-rule:nonzero;stroke:none"
         id="path22" /><path
         d="m 2426.44,87.2695 c 0,-6.6992 0.99,-12.3984 2.99,-17.1406 2.01,-4.7305 4.71,-8.25 8.18,-10.6289 3.51,-2.4297 7.3,-3.6289 11.38,-3.6289 4.2,0 8.01,1.1602 11.45,3.4102 3.46,2.2812 6.19,5.7695 8.28,10.4609 2.05,4.668 3.07,10.5391 3.07,17.5273 0,6.6524 -1.02,12.2891 -3.07,17.0625 -2.09,4.77 -4.84,8.367 -8.36,10.93 -3.5,2.488 -7.34,3.758 -11.5,3.758 -4.34,0 -8.22,-1.321 -11.66,-3.879 -3.39,-2.559 -6.07,-6.27 -7.94,-11.09 -1.88,-4.8322 -2.82,-10.3596 -2.82,-16.7815 z m 46.66,-36.3476 v 2.4297 c -3.18,-3.8203 -6.33,-6.9102 -9.46,-9.2813 -3.06,-2.4101 -6.44,-4.2187 -10.07,-5.4687 -3.6,-1.1993 -7.58,-1.8399 -11.86,-1.8399 -5.67,0 -10.96,1.2696 -15.78,3.7383 -4.83,2.5898 -9.03,6.1289 -12.55,10.7891 -3.54,4.6523 -6.21,10.1328 -8.07,16.4531 -1.83,6.2695 -2.73,13.0781 -2.73,20.4375 0,15.4613 3.63,27.5903 10.87,36.2423 7.26,8.66 16.79,12.98 28.61,12.98 6.85,0 12.63,-1.25 17.31,-3.75 4.68,-2.402 9.27,-6.183 13.73,-11.293 v 36.59 c 0,5.09 0.97,8.93 2.93,11.531 1.93,2.602 4.67,3.899 8.28,3.899 3.59,0 6.34,-1.199 8.32,-3.559 1.94,-2.379 2.94,-5.929 2.94,-10.578 V 50.9219 c 0,-4.7227 -1.06,-8.2735 -3.16,-10.6094 -2.09,-2.3828 -4.78,-3.5508 -8.1,-3.5508 -3.21,0 -5.92,1.2188 -8.05,3.668 -2.11,2.4297 -3.16,5.9101 -3.16,10.4922"
         style="fill:#231f20;fill-opacity:1;fill-rule:nonzero;stroke:none"
         id="path24" /><path
         d="m 2584.45,87.0898 c 0,10.0704 -2.15,17.9612 -6.4,23.5822 -4.26,5.598 -10,8.449 -17.17,8.449 -4.67,0 -8.73,-1.281 -12.29,-3.781 -3.51,-2.539 -6.25,-6.238 -8.16,-11.149 -1.91,-4.859 -2.87,-10.5504 -2.87,-17.1012 0,-6.4882 0.96,-12.1289 2.83,-16.9609 1.88,-4.8398 4.57,-8.5469 8.11,-11.1367 3.47,-2.5508 7.65,-3.8203 12.38,-3.8203 7.17,0 12.91,2.8086 17.17,8.4687 4.25,5.6289 6.4,13.4805 6.4,23.4492 z m 23.83,0 c 0,-7.3476 -1.11,-14.1601 -3.3,-20.4414 -2.21,-6.1679 -5.39,-11.5468 -9.55,-16.039 -4.2,-4.4883 -9.18,-7.8399 -14.98,-10.2969 -5.8,-2.3828 -12.36,-3.5508 -19.57,-3.5508 -7.19,0 -13.65,1.168 -19.4,3.6289 -5.74,2.3985 -10.72,5.8711 -14.94,10.3789 -4.18,4.5196 -7.36,9.8125 -9.57,15.9493 -2.17,6.1914 -3.24,12.9414 -3.24,20.4101 0,7.5 1.11,14.3511 3.3,20.5701 2.21,6.25 5.35,11.563 9.47,16.012 4.13,4.398 9.11,7.809 14.98,10.199 5.88,2.379 12.31,3.61 19.4,3.61 7.19,0 13.73,-1.231 19.57,-3.649 5.84,-2.422 10.86,-5.891 15.04,-10.371 4.18,-4.48 7.34,-9.82 9.49,-16 2.23,-6.148 3.3,-12.9805 3.3,-20.4102"
         style="fill:#231f20;fill-opacity:1;fill-rule:nonzero;stroke:none"
         id="path26" /><path
         d="m 2708.57,107.551 c -1.77,-4.192 -2.63,-11.5705 -2.63,-22.219 V 52.4023 c 0,-5.1835 -1.12,-9.121 -3.4,-11.7421 -2.25,-2.6016 -5.25,-3.8985 -8.97,-3.8985 -3.57,0 -6.48,1.2969 -8.69,3.8985 -2.24,2.6211 -3.34,6.5586 -3.34,11.7421 v 39.5196 c 0,6.207 -0.23,11.0471 -0.64,14.5391 -0.41,3.418 -1.51,6.269 -3.3,8.488 -1.76,2.223 -4.63,3.332 -8.5,3.332 -7.75,0 -12.85,-2.793 -15.35,-8.402 -2.48,-5.547 -3.67,-13.547 -3.67,-23.9688 V 52.4023 c 0,-5.1601 -1.13,-9.082 -3.34,-11.6601 -2.25,-2.6836 -5.2,-3.9805 -8.81,-3.9805 -3.61,0 -6.6,1.2969 -8.87,3.9805 -2.3,2.5781 -3.4,6.5 -3.4,11.6289 v 70.9379 c 0,4.671 0.98,8.211 3.03,10.613 2.09,2.418 4.79,3.668 8.17,3.668 3.24,0 5.95,-1.141 8.12,-3.399 2.17,-2.281 3.26,-5.402 3.26,-9.41 v -2.351 c 4.1,5.16 8.52,8.941 13.21,11.34 4.68,2.41 9.96,3.632 15.66,3.632 5.96,0 11.05,-1.25 15.35,-3.75 4.32,-2.453 7.83,-6.222 10.61,-11.222 4,5.039 8.3,8.859 12.89,11.289 4.59,2.461 9.65,3.683 15.19,3.683 6.55,0 12.11,-1.3 16.8,-4.004 4.71,-2.668 8.2,-6.457 10.53,-11.437 2.05,-4.481 3.04,-11.52 3.04,-21.172 V 52.4023 c 0,-5.1835 -1.13,-9.121 -3.36,-11.7421 -2.3,-2.6016 -5.27,-3.8985 -8.98,-3.8985 -3.59,0 -6.54,1.2969 -8.81,3.9805 -2.32,2.5781 -3.48,6.5 -3.48,11.6601 v 41.6993 c 0,5.3203 -0.21,9.5784 -0.64,12.7894 -0.43,3.257 -1.6,5.91 -3.54,8.089 -1.89,2.192 -4.82,3.301 -8.67,3.301 -3.12,0 -6.11,-0.992 -8.88,-2.883 -2.87,-1.968 -5,-4.57 -6.59,-7.847 v 0"
         style="fill:#231f20;fill-opacity:1;fill-rule:nonzero;stroke:none"
         id="path28" /><path
         d="m 2843.03,86.6211 c -3.5,-1.3594 -8.56,-2.7422 -15.2,-4.25 -6.62,-1.4805 -11.23,-2.5508 -13.79,-3.2695 -2.56,-0.711 -4.98,-2.0508 -7.28,-4.0703 -2.35,-2.0821 -3.5,-4.9024 -3.5,-8.5391 0,-3.7813 1.37,-6.9609 4.08,-9.582 2.74,-2.6602 6.31,-3.961 10.73,-3.961 4.68,0 9.04,1.0899 12.98,3.25 3.99,2.1211 6.9,4.9297 8.74,8.3008 2.14,3.75 3.24,9.9102 3.24,18.582 z m 1.56,-35.9102 c -5.76,-4.6601 -11.31,-8.1406 -16.68,-10.4414 -5.33,-2.3593 -11.37,-3.5078 -18.01,-3.5078 -6.13,0 -11.44,1.2696 -16.07,3.7383 -4.63,2.5313 -8.17,5.9414 -10.67,10.2695 -2.48,4.2891 -3.75,8.9219 -3.75,13.961 0,6.7812 2.11,12.539 6.22,17.3398 4.08,4.7383 9.74,7.961 16.91,9.6094 1.52,0.3594 5.27,1.1523 11.23,2.4219 6.02,1.2968 11.09,2.4492 15.39,3.5 4.24,1.039 8.89,2.3281 13.87,3.8284 -0.32,6.582 -1.57,11.371 -3.77,14.48 -2.25,3.02 -6.92,4.531 -13.89,4.531 -6.05,0 -10.57,-0.851 -13.65,-2.621 -3.03,-1.73 -5.65,-4.39 -7.79,-7.941 -2.21,-3.488 -3.72,-5.809 -4.61,-6.93 -0.92,-1.129 -2.86,-1.64 -5.78,-1.64 -2.7,0 -4.99,0.871 -6.9,2.632 -1.97,1.801 -2.95,4.071 -2.95,6.887 0,4.352 1.49,8.613 4.44,12.672 2.96,4.141 7.57,7.512 13.82,10.219 6.27,2.672 14.09,3.98 23.42,3.98 10.41,0 18.63,-1.308 24.63,-3.879 5.96,-2.531 10.16,-6.57 12.62,-12.199 2.48,-5.531 3.73,-12.941 3.73,-22.1288 0,-5.8008 0,-10.7813 -0.06,-14.8008 -0.06,-4.0898 -0.06,-8.6016 -0.14,-13.5508 0,-4.6484 0.74,-9.5312 2.23,-14.5508 1.44,-5.0507 2.19,-8.3203 2.19,-9.75 0,-2.539 -1.18,-4.8789 -3.44,-6.9609 -2.25,-2.0664 -4.84,-3.1172 -7.75,-3.1172 -2.45,0 -4.83,1.168 -7.25,3.5508 -2.34,2.4063 -4.88,5.8867 -7.54,10.3984"
         style="fill:#231f20;fill-opacity:1;fill-rule:nonzero;stroke:none"
         id="path30" /><path
         d="M 2914.2,123.43 V 51.8398 c 0,-5 -1.13,-8.75 -3.38,-11.2812 -2.27,-2.5 -5.12,-3.7969 -8.59,-3.7969 -3.48,0 -6.35,1.2969 -8.5,3.8789 -2.19,2.6407 -3.26,6.3399 -3.26,11.1992 V 122.73 c 0,4.86 1.07,8.559 3.26,11.04 2.15,2.5 5.02,3.75 8.5,3.75 3.47,0 6.32,-1.25 8.59,-3.75 2.25,-2.481 3.38,-5.918 3.38,-10.34 z m -11.74,25.633 c -3.28,0 -6.09,1.046 -8.46,3.218 -2.34,2.098 -3.53,5.141 -3.53,9.008 0,3.492 1.21,6.359 3.63,8.672 2.38,2.281 5.2,3.348 8.36,3.348 3.07,0 5.82,-1.008 8.2,-3.047 2.35,-2.051 3.54,-5.09 3.54,-8.973 0,-3.84 -1.15,-6.809 -3.46,-8.937 -2.34,-2.161 -5.1,-3.289 -8.28,-3.289"
         style="fill:#231f20;fill-opacity:1;fill-rule:nonzero;stroke:none"
         id="path32" /><path
         d="m 2960.34,123.789 v -2.961 c 4.14,5.723 8.73,9.953 13.65,12.641 4.98,2.683 10.67,4.051 17.15,4.051 6.23,0 11.84,-1.418 16.8,-4.309 4.88,-2.82 8.59,-6.801 11.02,-12.012 1.56,-3.058 2.55,-6.347 3.04,-9.828 0.43,-3.5 0.71,-7.973 0.71,-13.4296 V 51.8398 c 0,-5 -1.14,-8.75 -3.29,-11.2812 -2.16,-2.5 -5.02,-3.7969 -8.47,-3.7969 -3.52,0 -6.41,1.2969 -8.54,3.8985 -2.22,2.6211 -3.36,6.3203 -3.36,11.1796 v 41.2618 c 0,8.2184 -1.05,14.4494 -3.22,18.7694 -2.23,4.328 -6.56,6.508 -13.07,6.508 -4.22,0 -8.06,-1.32 -11.56,-3.977 -3.48,-2.593 -6.01,-6.23 -7.64,-10.843 -1.15,-3.6801 -1.75,-10.559 -1.75,-20.727 V 51.8398 c 0,-5.0195 -1.12,-8.8085 -3.36,-11.3398 -2.25,-2.4687 -5.12,-3.7383 -8.64,-3.7383 -3.41,0 -6.25,1.2969 -8.44,3.8789 -2.23,2.6407 -3.32,6.3399 -3.32,11.1992 V 123.43 c 0,4.73 0.97,8.23 2.97,10.57 1.96,2.34 4.69,3.52 8.09,3.52 2.07,0 3.99,-0.559 5.63,-1.559 1.73,-1.012 3.04,-2.602 4.06,-4.59 0.99,-2.109 1.54,-4.609 1.54,-7.582"
         style="fill:#231f20;fill-opacity:1;fill-rule:nonzero;stroke:none"
         id="path34" /><path
         d="m 3060.81,122.078 19.18,-56.2577 20.7,58.7187 c 1.66,4.723 3.25,8.031 4.83,10.02 1.6,1.941 3.92,2.961 7.11,2.961 3.02,0 5.58,-1.071 7.75,-3.219 2.07,-2.102 3.15,-4.52 3.15,-7.36 0,-1.082 -0.22,-2.332 -0.59,-3.742 -0.35,-1.488 -0.78,-2.859 -1.29,-4.148 -0.51,-1.231 -1.02,-2.711 -1.7,-4.321 l -22.79,-58.9995 c -0.65,-1.6914 -1.49,-3.8711 -2.48,-6.4688 -1.04,-2.582 -2.17,-4.7812 -3.4,-6.6914 -1.27,-1.8203 -2.79,-3.2305 -4.59,-4.2617 -1.86,-1.0273 -4.08,-1.5469 -6.7,-1.5469 -3.36,0 -6.03,0.7891 -8.05,2.3789 -2.01,1.6094 -3.49,3.3477 -4.43,5.2891 -0.94,1.8789 -2.58,5.6601 -4.82,11.3008 l -22.64,58.3515 c -0.53,1.449 -1.08,2.91 -1.64,4.348 -0.53,1.449 -0.96,2.91 -1.37,4.441 -0.35,1.551 -0.57,2.84 -0.57,3.891 0,1.73 0.49,3.398 1.51,5.07 0.98,1.668 2.36,3.047 4.08,4.09 1.76,1.039 3.61,1.598 5.66,1.598 3.93,0 6.65,-1.18 8.13,-3.598 1.48,-2.332 3.14,-6.281 4.96,-11.844"
         style="fill:#231f20;fill-opacity:1;fill-rule:nonzero;stroke:none"
         id="path36" /><path
         d="m 3157.94,95.1719 h 43.05 c -0.57,8.4371 -2.74,14.7891 -6.57,18.9691 -3.8,4.187 -8.8,6.3 -15.02,6.3 -5.87,0 -10.76,-2.132 -14.53,-6.39 -3.81,-4.242 -6.07,-10.551 -6.93,-18.8791 z m 46.46,-14.1016 h -46.46 c 0.02,-5.6601 1.15,-10.5898 3.22,-14.9297 2.17,-4.2617 4.96,-7.4883 8.46,-9.6992 3.51,-2.1914 7.4,-3.25 11.64,-3.25 2.83,0 5.45,0.3399 7.77,1.0078 2.35,0.7422 4.63,1.8125 6.86,3.2891 2.17,1.4805 4.18,3.043 6.05,4.793 1.84,1.6679 4.32,3.9492 7.21,6.8671 1.25,1.1407 2.99,1.6524 5.23,1.6524 2.47,0 4.42,-0.6719 5.92,-2.0899 1.53,-1.4101 2.25,-3.3515 2.25,-5.8789 0,-2.25 -0.82,-4.8711 -2.52,-7.8906 -1.68,-2.9609 -4.16,-5.8516 -7.62,-8.6328 -3.4,-2.7383 -7.65,-4.9883 -12.79,-6.8477 -5.1,-1.8007 -10.98,-2.6992 -17.7,-2.6992 -15.23,0 -27.11,4.5586 -35.54,13.5977 -8.44,9.1211 -12.68,21.4101 -12.68,36.9101 0,7.4219 1.08,14.1605 3.13,20.4105 2.09,6.269 5.11,11.652 9.12,16.109 4,4.512 8.9,7.973 14.78,10.32 5.88,2.391 12.35,3.59 19.51,3.59 9.22,0 17.19,-2.039 23.83,-6.148 6.66,-4.082 11.62,-9.321 14.92,-15.781 3.32,-6.508 4.97,-13.09 4.97,-19.8403 0,-6.1992 -1.67,-10.25 -5.12,-12.0703 -3.46,-1.8906 -8.22,-2.7891 -14.44,-2.7891"
         style="fill:#231f20;fill-opacity:1;fill-rule:nonzero;stroke:none"
         id="path38" /><path
         d="m 3329.15,67.4414 c 0,-3.082 -0.88,-6.3906 -2.68,-9.8828 -1.77,-3.5195 -4.43,-6.8477 -8.08,-10.0195 -3.61,-3.1797 -8.2,-5.7383 -13.73,-7.6602 -5.49,-1.9687 -11.72,-2.918 -18.58,-2.918 -14.7,0 -26.15,4.461 -34.37,13.3789 -8.2,8.9415 -12.36,20.8711 -12.36,35.8907 0,10.1601 1.87,19.1795 5.68,26.9605 3.77,7.778 9.18,13.848 16.33,18.098 7.11,4.293 15.66,6.41 25.58,6.41 6.16,0 11.76,-0.949 16.94,-2.797 5.11,-1.89 9.43,-4.32 13.04,-7.261 3.58,-2.969 6.27,-6.141 8.19,-9.5 1.85,-3.352 2.81,-6.481 2.81,-9.391 0,-2.93 -1.04,-5.43 -3.22,-7.52 -2.09,-2.0581 -4.65,-3.1011 -7.66,-3.1011 -1.99,0 -3.61,0.582 -4.88,1.6328 -1.35,1.0273 -2.79,2.6993 -4.45,5.0973 -2.9,4.582 -5.9,8.063 -9.07,10.403 -3.16,2.289 -7.18,3.468 -12.07,3.468 -6.97,0 -12.65,-2.902 -16.93,-8.609 -4.32,-5.769 -6.45,-13.5702 -6.45,-23.4999 0,-4.6523 0.59,-8.9727 1.64,-12.8594 1.12,-3.9219 2.72,-7.2226 4.81,-9.9922 2.09,-2.7695 4.63,-4.8476 7.58,-6.25 2.91,-1.4492 6.17,-2.1601 9.72,-2.1601 4.75,0 8.85,1.1328 12.23,3.4492 3.38,2.3203 6.41,5.832 9.02,10.5117 1.45,2.8399 2.99,5 4.69,6.6016 1.66,1.5664 3.71,2.3086 6.17,2.3086 2.87,0 5.32,-1.1094 7.17,-3.4102 1.95,-2.3398 2.93,-4.7695 2.93,-7.3789"
         style="fill:#231f20;fill-opacity:1;fill-rule:nonzero;stroke:none"
         id="path40" /><path
         d="m 3351.2,135.41 h 2.62 v 14.91 c 0,3.961 0.1,7.129 0.31,9.391 0.2,2.269 0.72,4.187 1.7,5.84 0.9,1.668 2.25,3.07 4,4.14 1.72,1.039 3.66,1.539 5.8,1.539 3.01,0 5.75,-1.171 8.17,-3.511 1.6,-1.598 2.66,-3.489 3.08,-5.739 0.45,-2.269 0.65,-5.539 0.65,-9.699 V 135.41 h 8.73 c 3.36,0 5.94,-0.832 7.7,-2.5 1.79,-1.66 2.65,-3.769 2.65,-6.379 0,-3.332 -1.25,-5.703 -3.81,-7 -2.5,-1.312 -6.11,-1.98 -10.82,-1.98 h -4.45 V 71.9023 c 0,-3.8828 0.14,-6.8632 0.39,-8.9726 0.29,-2.1094 1.04,-3.8008 2.15,-5.0703 1.09,-1.3203 2.93,-1.9883 5.51,-1.9883 1.38,0 3.26,0.25 5.66,0.7891 2.32,0.5117 4.18,0.7617 5.55,0.7617 1.89,0 3.67,-0.8321 5.17,-2.3633 1.51,-1.6367 2.31,-3.5898 2.31,-5.9688 0,-3.9804 -2.05,-7.0312 -6.25,-9.1679 -4.22,-2.1094 -10.2,-3.1602 -18.01,-3.1602 -7.42,0 -13.07,1.2969 -16.89,3.8985 -3.81,2.6211 -6.35,6.1796 -7.5,10.8398 -1.22,4.6016 -1.8,10.7305 -1.8,18.4219 v 47.6291 h -3.17 c -3.36,0 -5.97,0.828 -7.79,2.551 -1.82,1.679 -2.69,3.82 -2.69,6.429 0,2.61 0.93,4.719 2.79,6.379 1.91,1.668 4.65,2.5 8.24,2.5"
         style="fill:#231f20;fill-opacity:1;fill-rule:nonzero;stroke:none"
         id="path42" /><path
         d="m 3477.98,87.0898 c 0,10.0704 -2.15,17.9612 -6.39,23.5822 -4.3,5.598 -9.98,8.449 -17.19,8.449 -4.64,0 -8.73,-1.281 -12.26,-3.781 -3.56,-2.539 -6.27,-6.238 -8.17,-11.149 -1.91,-4.859 -2.89,-10.5504 -2.89,-17.1012 0,-6.4882 0.98,-12.1289 2.86,-16.9609 1.87,-4.8398 4.55,-8.5469 8.06,-11.1367 3.5,-2.5508 7.62,-3.8203 12.4,-3.8203 7.21,0 12.89,2.8086 17.19,8.4687 4.24,5.6289 6.39,13.4805 6.39,23.4492 z m 23.83,0 c 0,-7.3476 -1.1,-14.1601 -3.32,-20.4414 -2.19,-6.1679 -5.39,-11.5468 -9.55,-16.039 -4.18,-4.4883 -9.18,-7.8399 -14.97,-10.2969 -5.8,-2.3828 -12.28,-3.5508 -19.57,-3.5508 -7.22,0 -13.69,1.168 -19.41,3.6289 -5.72,2.3985 -10.72,5.8711 -14.9,10.3789 -4.2,4.5196 -7.4,9.8125 -9.55,15.9493 -2.17,6.1914 -3.25,12.9414 -3.25,20.4101 0,7.5 1.08,14.3511 3.25,20.5701 2.26,6.25 5.37,11.563 9.49,16.012 4.14,4.398 9.12,7.809 14.96,10.199 5.92,2.379 12.36,3.61 19.41,3.61 7.21,0 13.7,-1.231 19.57,-3.649 5.86,-2.422 10.86,-5.891 15.04,-10.371 4.14,-4.48 7.39,-9.82 9.53,-16 2.17,-6.148 3.27,-12.9805 3.27,-20.4102"
         style="fill:#231f20;fill-opacity:1;fill-rule:nonzero;stroke:none"
         id="path44" /><path
         d="M 3544.11,72.4805 V 51.8398 c 0,-5.0195 -1.13,-8.8085 -3.4,-11.3398 -2.26,-2.4687 -5.13,-3.7383 -8.63,-3.7383 -3.4,0 -6.23,1.2969 -8.42,3.7969 -2.2,2.5312 -3.28,6.2812 -3.28,11.2812 v 68.9692 c 0,11.152 3.83,16.711 11.54,16.711 3.91,0 6.78,-1.34 8.54,-3.918 1.72,-2.59 2.64,-6.454 2.87,-11.524 2.83,5.07 5.76,8.934 8.75,11.524 2.99,2.578 6.95,3.918 11.91,3.918 5.04,0 9.85,-1.34 14.57,-3.918 4.67,-2.59 7.06,-6.051 7.06,-10.34 0,-3.032 -1.04,-5.563 -3.03,-7.492 -1.97,-1.95 -4.14,-2.969 -6.49,-2.969 -0.86,0 -2.97,0.578 -6.31,1.711 -3.33,1.109 -6.28,1.687 -8.84,1.687 -3.46,0 -6.29,-0.937 -8.48,-2.89 -2.21,-1.918 -3.93,-4.719 -5.16,-8.469 -1.21,-3.781 -2.09,-8.2189 -2.52,-13.4181 -0.44,-5.1406 -0.68,-11.4414 -0.68,-18.9414"
         style="fill:#231f20;fill-opacity:1;fill-rule:nonzero;stroke:none"
         id="path46" /><path
         d="m 3670.6,69.1289 c 0,-6.8476 -1.61,-12.6875 -4.83,-17.5664 -3.2,-4.8828 -7.91,-8.5312 -14.14,-11.082 -6.25,-2.4492 -13.81,-3.7188 -22.79,-3.7188 -8.46,0 -15.8,1.3594 -21.92,4.0899 -6.07,2.7187 -10.58,6.1093 -13.45,10.1797 -2.93,4.0703 -4.42,8.1679 -4.42,12.2695 0,2.7187 0.96,5.0703 2.85,6.9883 1.84,1.9609 4.2,2.9101 7.02,2.9101 2.5,0 4.43,-0.6406 5.76,-1.8906 1.35,-1.3281 2.58,-3.0898 3.83,-5.3672 2.44,-4.4492 5.33,-7.7422 8.77,-9.9297 3.34,-2.2031 7.98,-3.2695 13.88,-3.2695 4.73,0 8.63,1.1172 11.68,3.3281 3.03,2.1992 4.61,4.7305 4.61,7.5703 0,4.3789 -1.62,7.5703 -4.74,9.5313 -3.21,2.0469 -8.38,3.9492 -15.65,5.75 -8.16,2.1289 -14.82,4.3476 -19.96,6.6601 -5.14,2.3399 -9.3,5.4375 -12.34,9.2383 -3.07,3.7695 -4.63,8.4997 -4.63,14.0707 0,4.98 1.42,9.668 4.27,14.05 2.84,4.438 7.07,7.957 12.6,10.598 5.53,2.641 12.21,3.981 20.06,3.981 6.13,0 11.66,-0.688 16.58,-2.008 4.89,-1.321 9.03,-3.133 12.25,-5.352 3.28,-2.25 5.8,-4.719 7.5,-7.43 1.74,-2.761 2.58,-5.421 2.58,-8 0,-2.859 -0.9,-5.14 -2.76,-7.031 -1.83,-1.738 -4.45,-2.668 -7.77,-2.668 -2.46,0 -4.51,0.711 -6.25,2.199 -1.68,1.43 -3.67,3.598 -5.86,6.469 -1.8,2.43 -3.91,4.383 -6.37,5.832 -2.44,1.438 -5.74,2.18 -9.9,2.18 -4.3,0 -7.89,-0.949 -10.68,-2.871 -2.85,-1.899 -4.3,-4.281 -4.3,-7.129 0,-2.609 1.05,-4.742 3.13,-6.41 2.1,-1.66 4.9,-3.039 8.45,-4.141 3.56,-1.09 8.42,-2.4491 14.63,-3.9998 7.36,-1.8594 13.38,-4.1016 18.05,-6.7188 4.67,-2.582 8.2,-5.6523 10.6,-9.2031 2.44,-3.5664 3.66,-7.5977 3.66,-12.1094"
         style="fill:#231f20;fill-opacity:1;fill-rule:nonzero;stroke:none"
         id="path48" /><path
         d="m 3697.55,36.7617 c -3.59,0 -6.7,1.168 -9.28,3.6289 -2.65,2.3985 -3.94,5.8086 -3.94,10.1407 0,3.6679 1.23,6.8593 3.69,9.5273 2.5,2.6523 5.6,3.9531 9.26,3.9531 3.63,0 6.75,-1.3008 9.27,-3.9297 2.62,-2.5937 3.93,-5.832 3.93,-9.5507 0,-4.293 -1.31,-7.6719 -3.93,-10.1016 -2.52,-2.4492 -5.52,-3.668 -9,-3.668"
         style="fill:#231f20;fill-opacity:1;fill-rule:nonzero;stroke:none"
         id="path50" /><path
         d="m 3802.55,87.0898 c 0,10.0704 -2.15,17.9612 -6.41,23.5822 -4.26,5.598 -9.96,8.449 -17.15,8.449 -4.64,0 -8.69,-1.281 -12.24,-3.781 -3.56,-2.539 -6.27,-6.238 -8.17,-11.149 -1.89,-4.859 -2.87,-10.5504 -2.87,-17.1012 0,-6.4882 0.92,-12.1289 2.8,-16.9609 1.93,-4.8398 4.61,-8.5469 8.12,-11.1367 3.5,-2.5508 7.62,-3.8203 12.36,-3.8203 7.19,0 12.89,2.8086 17.15,8.4687 4.26,5.6289 6.41,13.4805 6.41,23.4492 z m 23.87,0 c 0,-7.3476 -1.1,-14.1601 -3.34,-20.4414 -2.21,-6.1679 -5.37,-11.5468 -9.55,-16.039 -4.2,-4.4883 -9.13,-7.8399 -14.97,-10.2969 -5.78,-2.3828 -12.3,-3.5508 -19.57,-3.5508 -7.18,0 -13.65,1.168 -19.39,3.6289 -5.74,2.3985 -10.68,5.8711 -14.88,10.3789 -4.26,4.5196 -7.43,9.8125 -9.63,15.9493 -2.13,6.1914 -3.22,12.9414 -3.22,20.4101 0,7.5 1.09,14.3511 3.3,20.5701 2.24,6.25 5.35,11.563 9.45,16.012 4.12,4.398 9.12,7.809 14.98,10.199 5.86,2.379 12.28,3.61 19.39,3.61 7.19,0 13.72,-1.231 19.57,-3.649 5.88,-2.422 10.88,-5.891 15.06,-10.371 4.16,-4.48 7.33,-9.82 9.53,-16 2.17,-6.148 3.27,-12.9805 3.27,-20.4102"
         style="fill:#231f20;fill-opacity:1;fill-rule:nonzero;stroke:none"
         id="path52" /><path
         d="M 3868.7,72.4805 V 51.8398 c 0,-5.0195 -1.13,-8.8085 -3.38,-11.3398 -2.24,-2.4687 -5.13,-3.7383 -8.59,-3.7383 -3.48,0 -6.25,1.2969 -8.48,3.7969 -2.21,2.5312 -3.3,6.2812 -3.3,11.2812 v 68.9692 c 0,11.152 3.91,16.711 11.58,16.711 3.95,0 6.76,-1.34 8.5,-3.918 1.72,-2.59 2.73,-6.454 2.93,-11.524 2.79,5.07 5.7,8.934 8.69,11.524 2.99,2.578 6.99,3.918 11.93,3.918 5.06,0 9.91,-1.34 14.55,-3.918 4.71,-2.59 7.08,-6.051 7.08,-10.34 0,-3.032 -1.02,-5.563 -2.99,-7.492 -2.03,-1.95 -4.16,-2.969 -6.53,-2.969 -0.84,0 -2.93,0.578 -6.27,1.711 -3.34,1.109 -6.29,1.687 -8.86,1.687 -3.46,0 -6.27,-0.937 -8.54,-2.89 -2.17,-1.918 -3.89,-4.719 -5.12,-8.469 -1.19,-3.781 -2.05,-8.2189 -2.5,-13.4181 -0.44,-5.1406 -0.7,-11.4414 -0.7,-18.9414"
         style="fill:#231f20;fill-opacity:1;fill-rule:nonzero;stroke:none"
         id="path54" /><path
         d="m 3937.26,87.9414 c 0,-10.0195 2.11,-17.6289 6.32,-22.793 4.18,-5.1171 9.65,-7.7265 16.27,-7.7265 3.93,0 7.7,1.1484 11.19,3.3594 3.52,2.2187 6.37,5.5273 8.6,9.9687 2.21,4.4688 3.28,9.8516 3.28,16.1914 0,10.0977 -2.15,17.9606 -6.41,23.5896 -4.23,5.668 -9.86,8.489 -16.79,8.489 -6.76,0 -12.23,-2.75 -16.29,-8.09 -4.12,-5.418 -6.17,-13.0511 -6.17,-22.9886 z m 68.82,31.4296 V 47.3516 c 0,-8.2422 -0.89,-15.3203 -2.54,-21.2227 -1.67,-5.957 -4.39,-10.8594 -8.08,-14.7187 -3.71,-3.87895 -8.59,-6.73051 -14.55,-8.62895 C 3974.89,0.960938 3967.41,0 3958.51,0 c -8.21,0 -15.53,1.15234 -21.94,3.53906 -6.44,2.46094 -11.4,5.49219 -14.88,9.30074 -3.48,3.75 -5.23,7.6485 -5.23,11.6719 0,3.0274 0.97,5.4883 2.98,7.3789 1.96,1.9492 4.34,2.8907 7.11,2.8907 3.5,0 6.51,-1.6211 9.16,-4.8125 1.27,-1.6797 2.62,-3.3086 3.95,-4.9493 1.35,-1.6914 2.85,-3.1289 4.51,-4.2773 1.66,-1.2109 3.67,-2.082 6,-2.6602 2.26,-0.582 4.96,-0.8632 7.98,-0.8632 6.12,0 10.94,0.9023 14.3,2.6835 3.4,1.7696 5.78,4.2696 7.17,7.4688 1.31,3.2109 2.17,6.6211 2.3,10.3008 0.3,3.7187 0.45,9.5703 0.61,17.6875 -3.65,-5.3008 -7.93,-9.3672 -12.68,-12.1485 -4.76,-2.7812 -10.48,-4.1406 -17.05,-4.1406 -8.01,0 -14.96,2.0703 -20.86,6.3399 -5.97,4.2382 -10.54,10.1406 -13.73,17.8007 -3.14,7.5899 -4.78,16.3985 -4.78,26.3985 0,7.4804 0.95,14.2106 2.95,20.1996 1.89,5.961 4.65,11.019 8.3,15.14 3.55,4.121 7.73,7.231 12.42,9.332 4.73,2.059 9.82,3.121 15.49,3.121 6.7,0 12.54,-1.371 17.46,-4.074 4.98,-2.656 9.51,-6.918 13.75,-12.656 V 124 c 0,4.328 1.05,7.621 3.05,10.051 2.03,2.34 4.64,3.539 7.81,3.539 4.61,0 7.65,-1.559 9.18,-4.68 1.48,-3.129 2.24,-7.66 2.24,-13.539"
         style="fill:#231f20;fill-opacity:1;fill-rule:nonzero;stroke:none"
         id="path56" /><path
         d="m 2976.9,360.68 h 35.24 c -2.5,-18.989 -10.27,-33.821 -23.22,-44.481 -11.98,-10.437 -26.49,-15.597 -43.44,-15.597 -23,0 -41.36,8.078 -55.05,24.207 -13.01,15.339 -19.49,35.14 -19.49,59.332 0,24.789 6.44,44.621 19.31,59.621 12.82,14.937 31,22.457 54.47,22.457 17.46,0 32.22,-4.727 44.2,-14.098 12.71,-10.121 20.46,-24.351 23.22,-42.582 h -35.24 c -3.02,15.902 -12.75,23.82 -29.27,23.82 -27.22,0 -40.87,-16.129 -40.87,-48.398 0,-15.121 3.51,-27.461 10.51,-37.09 7.01,-9.641 16.87,-14.461 29.63,-14.461 18.97,0 28.99,9.102 30,27.27 z m -138.66,22.218 c 0,-31.519 10,-58.207 29.98,-79.929 19.98,-21.758 44.42,-32.637 73.44,-32.637 28.94,0 53.41,10.879 73.37,32.637 20,21.722 29.94,48.41 29.94,79.929 0,31.504 -9.94,58.161 -29.94,79.915 -19.96,21.765 -44.43,32.636 -73.37,32.636 -29.02,0 -53.46,-10.871 -73.44,-32.636 -19.98,-21.754 -29.98,-48.411 -29.98,-79.915 z m -35.76,0 c 0,40.114 13.57,74.344 40.74,102.782 27.19,28.39 60.02,42.59 98.44,42.59 38.39,0 71.16,-14.2 98.39,-42.59 27.19,-28.438 40.8,-62.668 40.8,-102.782 0,-40.136 -13.61,-74.418 -40.8,-102.796 -27.23,-28.422 -60,-42.633 -98.39,-42.633 -38.42,0 -71.25,14.211 -98.44,42.633 -27.17,28.378 -40.74,62.66 -40.74,102.796"
         style="fill:#231f20;fill-opacity:1;fill-rule:nonzero;stroke:none"
         id="path58" /><path
         d="m 2858.79,291.719 20.29,-17.219 149.31,191.691 -20.29,17.2 -149.31,-191.672"
         style="fill:#231f20;fill-opacity:1;fill-rule:nonzero;stroke:none"
         id="path60" /><path
         d="m 2864.16,836.07 c 1525.33,0 2769.41,30.571 2769.41,68.071 0,37.5 -1244.08,68.109 -2769.41,68.109 -1525.33,0 -2769.3827,-30.609 -2769.3827,-68.109 0,-37.5 1244.0527,-68.071 2769.3827,-68.071"
         style="fill:#463d3b;fill-opacity:1;fill-rule:evenodd;stroke:none"
         id="path62" /><path
         d="m 3703.25,5332.64 v 0 L 4301.48,4734.4 V 904.141 H 3105.01 V 4734.4 l 598.24,598.24"
         style="fill:#4e8398;fill-opacity:1;fill-rule:evenodd;stroke:none"
         id="path64" /><path
         d="m 3703.25,5332.64 v 0 L 4139.9,4895.98 V 904.141 H 3266.59 V 4895.99 l 436.66,436.65"
         style="fill:#4e8398;fill-opacity:1;fill-rule:evenodd;stroke:none"
         id="path66" /><path
         d="m 4139.9,3437.64 -873.31,-696.43 v -759.43 l 873.31,696.42 z m 0,716.77 v -443.72 l -873.31,-696.43 v 443.72 l 873.31,696.43 v 0"
         style="fill:#5799ae;fill-opacity:1;fill-rule:evenodd;stroke:none"
         id="path68" /><path
         d="M 3266.59,904.141 H 3105.01 V 4734.4 l 161.58,161.59 V 904.141"
         style="fill:#5799ae;fill-opacity:1;fill-rule:evenodd;stroke:none"
         id="path70" /><path
         d="M 4139.9,4895.98 4301.48,4734.4 V 904.141 H 4139.9 V 4895.98"
         style="fill:#3a6c84;fill-opacity:1;fill-rule:evenodd;stroke:none"
         id="path72" /><path
         d="M 4301.48,3623.76 V 2864.32 L 4139.9,2678.2 v 759.44 z m 0,716.77 V 3896.81 L 4139.9,3710.69 v 443.72 l 161.58,186.12 v 0"
         style="fill:#4e8398;fill-opacity:1;fill-rule:evenodd;stroke:none"
         id="path74" /><path
         d="M 5264.87,2551.25 4130.56,3468 V 904.141 H 5264.87 V 2551.25"
         style="fill:#5799ae;fill-opacity:1;fill-rule:evenodd;stroke:none"
         id="path76" /><path
         d="m 4130.56,1256.48 1134.31,904.59 V 1401.62 L 4641.04,904.141 h -510.48 z m 1134.31,1294.77 -203.41,164.37 -930.9,-742.36 v -443.71 l 1134.31,904.57 v 117.13 0"
         style="fill:#7bbfd1;fill-opacity:1;fill-rule:evenodd;stroke:none"
         id="path78" /><path
         d="M 2141.64,5270.48 1007.32,6187.25 V 904.141 H 2141.64 V 5270.48"
         style="fill:#4e8398;fill-opacity:1;fill-rule:evenodd;stroke:none"
         id="path80" /><path
         d="m 1007.32,2586.93 1134.32,904.58 V 2732.09 L 1007.32,1827.5 Z m 0,716.78 v -443.73 l 1134.32,904.59 v 443.71 L 1007.32,3303.71 v 0"
         style="fill:#5799ae;fill-opacity:1;fill-rule:evenodd;stroke:none"
         id="path82" /><path
         d="m 1148.54,6073.1 -141.22,114.15 V 904.141 h 141.22 V 6073.1"
         style="fill:#5799ae;fill-opacity:1;fill-rule:evenodd;stroke:none"
         id="path84" /><path
         d="M 2141.64,5270.48 2000.4,5384.63 V 904.141 h 141.24 V 5270.48"
         style="fill:#3a6c84;fill-opacity:1;fill-rule:evenodd;stroke:none"
         id="path86" /><path
         d="M 1951.67,904.141 H 3660.91 V 4400.32 H 1951.67 V 904.141"
         style="fill:#4e8398;fill-opacity:1;fill-rule:evenodd;stroke:none"
         id="path88" /><path
         d="m 3660.91,3827.57 -228.5,-325.39 v 443.7 l 228.5,325.39 z m 0,-1032.49 v 759.42 l -228.5,-325.39 v -759.42 l 228.5,325.39 v 0"
         style="fill:#5799ae;fill-opacity:1;fill-rule:evenodd;stroke:none"
         id="path90" /><path
         d="M 463.469,3949.69 1597.78,4866.48 V 904.141 H 463.469 V 3949.69"
         style="fill:#5799ae;fill-opacity:1;fill-rule:evenodd;stroke:none"
         id="path92" /><path
         d="M 1597.78,3119.67 463.469,2215.1 v -759.44 l 1134.311,904.57 z m 0,716.77 V 3392.72 L 463.469,2488.14 v 443.73 l 1134.311,904.57 v 0"
         style="fill:#7bbfd1;fill-opacity:1;fill-rule:evenodd;stroke:none"
         id="path94" /><path
         d="m 1410,4714.72 187.78,151.76 V 904.141 H 1410 V 4714.72"
         style="fill:#4e8398;fill-opacity:1;fill-rule:evenodd;stroke:none"
         id="path96" /><path
         d="M 1597.78,3219.89 V 2460.45 L 1410,2210.49 v 759.45 z m 0,716.77 V 3492.94 L 1410,3242.98 v 443.72 l 187.78,249.96 v 0"
         style="fill:#5799ae;fill-opacity:1;fill-rule:evenodd;stroke:none"
         id="path98" /><path
         d="M 463.469,3949.69 651.23,4101.46 V 904.141 H 463.469 V 3949.69"
         style="fill:#6babbe;fill-opacity:1;fill-rule:evenodd;stroke:none"
         id="path100" /><path
         d="M 651.23,2364.82 V 1605.39 L 463.469,1333.96 v 759.44 z m 0,716.78 V 2637.89 L 463.469,2366.46 v 443.7 L 651.23,3081.6 v 0"
         style="fill:#9ad5e1;fill-opacity:1;fill-rule:evenodd;stroke:none"
         id="path102" /><path
         d="m 1785.54,4714.72 -187.76,151.76 V 904.141 h 187.76 V 4714.72"
         style="fill:#3a6c84;fill-opacity:1;fill-rule:evenodd;stroke:none"
         id="path104" /><path
         d="m 1597.78,3057.8 v -759.42 l 187.76,149.72 v 759.45 z m 0,716.77 v -443.7 l 187.76,149.73 v 443.72 l -187.76,-149.75 v 0"
         style="fill:#4e8398;fill-opacity:1;fill-rule:evenodd;stroke:none"
         id="path106" /><path
         d="M 2180.18,904.141 H 3432.41 V 4400.32 H 2180.18 V 904.141"
         style="fill:#5799ae;fill-opacity:1;fill-rule:evenodd;stroke:none"
         id="path108" /><path
         d="M 3432.41,3502.18 2180.18,2503.55 v 443.73 l 1252.23,998.6 z m 0,-1032.49 v 759.42 l -1252.23,-998.6 v -759.44 l 1252.23,998.62 v 0"
         style="fill:#7bbfd1;fill-opacity:1;fill-rule:evenodd;stroke:none"
         id="path110" /><path
         d="m 1951.67,904.141 h 228.51 V 4400.32 H 1951.67 V 904.141"
         style="fill:#6babbe;fill-opacity:1;fill-rule:evenodd;stroke:none"
         id="path112" /><path
         d="m 2180.18,2503.55 -228.51,-311.07 v 443.73 l 228.51,311.07 z m 0,-1032.48 v 759.44 L 1951.67,1919.43 V 1160 l 228.51,311.07 v 0"
         style="fill:#9ad5e1;fill-opacity:1;fill-rule:evenodd;stroke:none"
         id="path114" /><path
         d="m 3660.91,4400.32 211.77,-200.43 V 904.141 H 3660.91 V 4400.32"
         style="fill:#3a6c84;fill-opacity:1;fill-rule:evenodd;stroke:none"
         id="path116" /><path
         d="m 3872.68,3224.53 v -759.45 l -211.77,-168.85 v 759.43 z m 0,716.77 v -443.71 l -211.77,-168.88 v 443.73 l 211.77,168.86 v 0"
         style="fill:#4e8398;fill-opacity:1;fill-rule:evenodd;stroke:none"
         id="path118" /><path
         d="M 4285.77,3342.57 4130.56,3468 V 904.141 h 155.21 V 3342.57"
         style="fill:#6babbe;fill-opacity:1;fill-rule:evenodd;stroke:none"
         id="path120" /><path
         d="M 4130.56,1134.8 V 904.141 h 155.21 v 476.129 z m 0,716.76 v -443.71 l 155.21,245.47 v 443.73 l -155.21,-245.49 v 0"
         style="fill:#9ad5e1;fill-opacity:1;fill-rule:evenodd;stroke:none"
         id="path122" /><path
         d="m 5264.87,2551.25 -155.21,125.43 V 904.141 h 155.21 V 2551.25"
         style="fill:#4e8398;fill-opacity:1;fill-rule:evenodd;stroke:none"
         id="path124" /><path
         d="m 5109.66,2037.28 v -759.43 l 155.21,182.34 v 759.42 z m 155.21,513.97 -155.21,125.43 v -366.35 l 155.21,182.34 v 58.58 0"
         style="fill:#5799ae;fill-opacity:1;fill-rule:evenodd;stroke:none"
         id="path126" /><path
         d="m 265.777,904.141 h 75.102 V 1343.5 H 265.777 V 904.141"
         style="fill:#463d3b;fill-opacity:1;fill-rule:evenodd;stroke:none"
         id="path128" /><path
         d="m 303.336,1227.26 c 167.07,0 303.328,136.27 303.328,303.34 0,167.07 -136.258,303.32 -303.328,303.32 C 136.27,1833.92 0,1697.67 0,1530.6 0,1363.53 136.27,1227.26 303.336,1227.26"
         style="fill:#adda1a;fill-opacity:1;fill-rule:evenodd;stroke:none"
         id="path130" /><path
         d="m 255.137,1779.04 c 87.121,0 139.39,-70.62 116.75,-157.73 -22.645,-87.11 -111.617,-157.74 -198.735,-157.74 -87.1168,0 -139.3825,70.63 -116.7457,157.74 22.6406,87.11 111.6167,157.73 198.7307,157.73"
         style="fill:#c6e446;fill-opacity:1;fill-rule:evenodd;stroke:none"
         id="path132" /><path
         d="m 1547.11,1343.5 c 25.04,0 50.06,0 75.1,0 0,-146.47 0,-292.9 0,-439.359 -25.04,0 -50.06,0 -75.1,0 0,146.459 0,292.889 0,439.359"
         style="fill:#463d3b;fill-opacity:1;fill-rule:evenodd;stroke:none"
         id="path134" /><path
         d="m 1584.67,1833.92 c 167.51,0 303.32,-135.8 303.32,-303.32 0,-167.52 -135.81,-303.34 -303.32,-303.34 -167.53,0 -303.33,135.82 -303.33,303.34 0,167.52 135.8,303.32 303.33,303.32"
         style="fill:#adda1a;fill-opacity:1;fill-rule:evenodd;stroke:none"
         id="path136" /><path
         d="m 1536.47,1779.04 c 87.11,0 139.38,-70.62 116.75,-157.73 -22.65,-87.11 -111.62,-157.74 -198.74,-157.74 -87.11,0 -139.38,70.63 -116.73,157.74 22.63,87.11 111.61,157.73 198.72,157.73"
         style="fill:#c6e446;fill-opacity:1;fill-rule:evenodd;stroke:none"
         id="path138" /><path
         d="m 2828.44,1343.5 c 25.04,0 50.07,0 75.1,0 0,-146.47 0,-292.9 0,-439.359 -25.03,0 -50.06,0 -75.1,0 0,146.459 0,292.889 0,439.359"
         style="fill:#463d3b;fill-opacity:1;fill-rule:evenodd;stroke:none"
         id="path140" /><path
         d="m 2866,1833.92 c 167.52,0 303.33,-135.8 303.33,-303.32 0,-167.52 -135.81,-303.34 -303.33,-303.34 -167.53,0 -303.33,135.82 -303.33,303.34 0,167.52 135.8,303.32 303.33,303.32"
         style="fill:#adda1a;fill-opacity:1;fill-rule:evenodd;stroke:none"
         id="path142" /><path
         d="m 2817.8,1779.04 c 87.11,0 139.38,-70.62 116.73,-157.73 -22.63,-87.11 -111.61,-157.74 -198.72,-157.74 -87.11,0 -139.38,70.63 -116.75,157.74 22.65,87.11 111.61,157.73 198.74,157.73"
         style="fill:#c6e446;fill-opacity:1;fill-rule:evenodd;stroke:none"
         id="path144" /><path
         d="m 4109.77,1343.5 c 25.03,0 50.07,0 75.09,0 0,-146.47 0,-292.9 0,-439.359 -25.02,0 -50.06,0 -75.09,0 0,146.459 0,292.889 0,439.359"
         style="fill:#463d3b;fill-opacity:1;fill-rule:evenodd;stroke:none"
         id="path146" /><path
         d="m 4147.32,1833.92 c 167.52,0 303.33,-135.8 303.33,-303.32 0,-167.52 -135.81,-303.34 -303.33,-303.34 -167.53,0 -303.33,135.82 -303.33,303.34 0,167.52 135.8,303.32 303.33,303.32"
         style="fill:#adda1a;fill-opacity:1;fill-rule:evenodd;stroke:none"
         id="path148" /><path
         d="m 4099.13,1779.04 c 87.11,0 139.38,-70.62 116.75,-157.73 -22.65,-87.11 -111.62,-157.74 -198.74,-157.74 -87.11,0 -139.38,70.63 -116.73,157.74 22.63,87.11 111.6,157.73 198.72,157.73"
         style="fill:#c6e446;fill-opacity:1;fill-rule:evenodd;stroke:none"
         id="path150" /><path
         d="m 5391.09,904.141 h 75.1 V 1343.5 h -75.1 V 904.141"
         style="fill:#463d3b;fill-opacity:1;fill-rule:evenodd;stroke:none"
         id="path152" /><path
         d="m 5428.65,1227.26 c 167.07,0 303.33,136.27 303.33,303.34 0,167.07 -136.26,303.32 -303.33,303.32 -167.07,0 -303.33,-136.25 -303.33,-303.32 0,-167.07 136.26,-303.34 303.33,-303.34"
         style="fill:#adda1a;fill-opacity:1;fill-rule:evenodd;stroke:none"
         id="path154" /><path
         d="m 5380.46,1779.04 c 87.11,0 139.39,-70.62 116.75,-157.73 -22.65,-87.11 -111.62,-157.74 -198.74,-157.74 -87.11,0 -139.38,70.63 -116.73,157.74 22.63,87.11 111.6,157.73 198.72,157.73"
         style="fill:#c6e446;fill-opacity:1;fill-rule:evenodd;stroke:none"
         id="path156" /></g></g></svg>
