<?xml version="1.0" standalone="no"?>
<!DOCTYPE svg PUBLIC "-//W3C//DTD SVG 20010904//EN"
 "http://www.w3.org/TR/2001/REC-SVG-20010904/DTD/svg10.dtd">
<svg version="1.0" xmlns="http://www.w3.org/2000/svg"
 width="313.000000pt" height="93.000000pt" viewBox="0 0 313.000000 93.000000"
 preserveAspectRatio="xMidYMid meet">

<g transform="translate(0.000000,93.000000) scale(0.100000,-0.100000)"
fill="#000000" stroke="none">
<path d="M560 471 l0 -351 131 0 c229 0 229 0 229 345 0 280 -4 300 -68 331
-28 14 -68 19 -164 22 l-128 4 0 -351z m252 252 c16 -15 18 -36 18 -258 0
-213 -2 -244 -17 -256 -10 -9 -42 -14 -92 -14 l-76 0 -3 273 -2 272 77 0 c57
0 81 -4 95 -17z"/>
<path d="M1180 808 c-46 -13 -88 -53 -100 -97 -5 -20 -10 -133 -10 -251 0
-204 1 -218 23 -260 34 -67 68 -80 210 -80 l117 0 -2 182 -3 183 -82 3 -83 3
0 -41 0 -40 40 0 40 0 0 -110 0 -110 -44 0 c-53 0 -94 14 -112 38 -10 13 -13
73 -14 240 l0 223 25 24 c22 23 32 25 115 25 l90 0 0 40 0 40 -87 -1 c-49 0
-104 -5 -123 -11z"/>
<path d="M1556 718 c3 -57 11 -213 18 -348 l11 -245 66 -3 66 -3 33 141 c19
77 37 137 41 133 4 -5 19 -68 35 -140 l27 -133 68 0 67 0 6 63 c3 34 10 175
16 312 6 138 12 267 14 288 l4 37 -39 0 c-37 0 -39 -1 -39 -32 0 -71 -21 -506
-27 -548 -5 -43 -8 -37 -48 115 l-42 160 -43 0 -43 0 -43 -160 c-23 -88 -43
-158 -44 -155 -2 8 -29 540 -30 583 0 37 -1 37 -40 37 l-40 0 6 -102z"/>
<path d="M192 593 l-182 -86 0 -57 0 -56 179 -82 c98 -45 183 -82 190 -82 6 0
11 17 11 43 l0 43 -156 69 c-121 53 -152 71 -138 77 11 4 80 35 154 67 l135
60 3 45 c2 25 -1 46 -5 45 -4 0 -90 -39 -191 -86z"/>
<path d="M2750 632 l0 -47 151 -64 c82 -35 147 -66 144 -70 -4 -3 -70 -34
-148 -68 l-142 -61 -3 -46 c-2 -25 1 -46 5 -46 4 0 89 37 188 83 l180 83 3 52
3 53 -138 65 c-76 36 -162 77 -190 89 l-53 24 0 -47z"/>
</g>
</svg>
